HIERARCHY
ROOT Hips
{
    OFFSET 0.0 0.0 0.0
    CHANNELS 6 Xposition Yposition Zposition Zrotation Xrotation Yrotation
    JOINT LeftUpLeg
    {
        OFFSET 12.793965970661278 0.0 0.0
        CHANNELS 3 Zrotation Xrotation Yrotation
        JOINT LeftLeg
        {
            OFFSET 0.0 0.0 -58.55729392387683
            CHANNELS 3 Zrotation Xrotation Yrotation
            JOINT LeftFoot
            {
                OFFSET 0.0 0.0 -44.806128458501334
                CHANNELS 3 Zrotation Xrotation Yrotation
                JOINT LeftToeBase
                {
                    OFFSET 0.0 -13.07853112517025 0.0
                    CHANNELS 3 Zrotation Xrotation Yrotation
                    End Site
                    {
                        OFFSET 0 0 0
                    }
                }
            }
        }
    }
    JOINT RightUpLeg
    {
        OFFSET -12.793965970661278 0.0 0.0
        CHANNELS 3 Zrotation Xrotation Yrotation
        JOINT RightLeg
        {
            OFFSET 0.0 0.0 -58.55729392387683
            CHANNELS 3 Zrotation Xrotation Yrotation
            JOINT RightFoot
            {
                OFFSET 0.0 0.0 -44.806128458501334
                CHANNELS 3 Zrotation Xrotation Yrotation
                JOINT RightToeBase
                {
                    OFFSET 0.0 -13.07853112517025 0.0
                    CHANNELS 3 Zrotation Xrotation Yrotation
                    End Site
                    {
                        OFFSET 0 0 0
                    }
                }
            }
        }
    }
    JOINT Spine
    {
        OFFSET 0.0 0.0 12.224477482838633
        CHANNELS 3 Zrotation Xrotation Yrotation
        JOINT Spine1
        {
            OFFSET 0.0 0.0 11.970270618547488
            CHANNELS 3 Zrotation Xrotation Yrotation
            JOINT Spine2
            {
                OFFSET 0.0 0.0 11.970270618547488
                CHANNELS 3 Zrotation Xrotation Yrotation
                JOINT Spine3
                {
                    OFFSET 0.0 0.0 11.970270618547483
                    CHANNELS 3 Zrotation Xrotation Yrotation
                    JOINT Spine4
                    {
                        OFFSET 0.0 0.0 11.970270618547492
                        CHANNELS 3 Zrotation Xrotation Yrotation
                        JOINT RightShoulder
                        {
                            OFFSET -23.836093394157814 0.0 0.0
                            CHANNELS 3 Zrotation Xrotation Yrotation
                            JOINT RightArm
                            {
                                OFFSET -34.92638727471889 0.0 0.0
                                CHANNELS 3 Zrotation Xrotation Yrotation
                                JOINT RightForeArm
                                {
                                    OFFSET -33.35607652304644 0.0 0.0
                                    CHANNELS 3 Zrotation Xrotation Yrotation
                                    JOINT RightHand
                                    {
                                        OFFSET -10.614475041941617 0.0 0.0
                                        CHANNELS 3 Zrotation Xrotation Yrotation
                                        End Site
                                        {
                                            OFFSET 0 0 0
                                        }
                                    }
                                }
                            }
                        }
                        JOINT LeftShoulder
                        {
                            OFFSET 23.836093394157814 0.0 0.0
                            CHANNELS 3 Zrotation Xrotation Yrotation
                            JOINT LeftArm
                            {
                                OFFSET 34.92638727471889 0.0 0.0
                                CHANNELS 3 Zrotation Xrotation Yrotation
                                JOINT LeftForeArm
                                {
                                    OFFSET 33.35607652304644 0.0 0.0
                                    CHANNELS 3 Zrotation Xrotation Yrotation
                                    JOINT LeftHand
                                    {
                                        OFFSET 10.614475041941617 0.0 0.0
                                        CHANNELS 3 Zrotation Xrotation Yrotation
                                        End Site
                                        {
                                            OFFSET 0 0 0
                                        }
                                    }
                                }
                            }
                        }
                        JOINT Neck
                        {
                            OFFSET 0.0 0.0 11.970270628455737
                            CHANNELS 3 Zrotation Xrotation Yrotation
                            JOINT Head
                            {
                                OFFSET 0.0 0.0 25.65208562538035
                                CHANNELS 3 Zrotation Xrotation Yrotation
                                End Site
                                {
                                    OFFSET 0 0 0
                                }
                            }
                        }
                    }
                }
            }
        }
    }
}
MOTION
Frames: 9
Frame Time: 0.03333333333333333
50.92438716888427 -20.44314068555832 487.014381980896 130.77188659428552 -81.51528472244728 130.1883240067904 -14.026315112652686 18.670075044098894 -32.031734968429916 10.856480185065594 -2.0267459929183347 29.97398568059853 -2.0720991498456063 -1.1927080055488187e-14 72.90758504319129 0.0 0.0 0.0 30.09283080332202 26.538483010757105 17.899289189014894 -36.91679070475181 -8.339499686575731 -44.62274704400952 92.39091161806579 -9.54166404439055e-15 -59.13445132232973 0.0 0.0 0.0 0.088754536362738 3.052643416011146 -0.008559946335935204 0.0 0.0 0.0 0.0 0.0 0.0 0.0 0.0 0.0 0.0 0.0 0.0 142.6176172834413 -7.505457521309382 160.20267620411596 109.23632004506275 4.847728536744996e-15 1.514588162103862e-14 -9.467879321278619e-15 41.63532354393985 7.002545723763958e-15 0.0 0.0 0.0 -149.68323499356308 8.457416774012193 176.82756181085054 -121.07999180521311 1.5642472980133767e-15 2.769306496658927e-15 180.0 -64.68180312200018 -180.0 7.951386703658792e-16 9.655420026984722e-33 1.3914926731402886e-15 -1.8308787556772506 -1.1989076390071e-15 3.7846299146477645e-16 0.0 0.0 0.0
51.22636048793793 -19.024681735038754 486.5200160980225 119.57880266647275 -80.66539021229303 119.25025379669098 -5.817606685310661 10.902543090576172 -33.731472203813915 3.3466251727991914 -0.690798283575075 30.291343388571722 -1.133675357124106 1.1032549051326574e-14 67.34660640127221 0.0 0.0 0.0 25.003974188809405 23.5985422014312 19.48147309812347 -37.57100338041235 -9.156976142233448 -46.07541105638065 101.17227141364326 9.54166404439055e-15 -68.68208180406951 0.0 0.0 0.0 0.09271173353395178 2.66921146399015 -0.2593259031180029 -7.951386703658792e-16 0.0 0.0 -7.951386703658792e-16 0.0 0.0 -7.951386703658792e-16 0.0 0.0 -7.951386703658792e-16 0.0 0.0 143.1068975282751 -5.613060041929061 158.16041234558654 109.68131946082126 8.863608225573387e-15 -1.5374894724139607e-15 -4.193337641332011e-15 45.64545027293777 1.7646742496803133e-15 3.1805546814635168e-15 -8.827812596100317e-32 -3.1805546814635168e-15 -153.1928115584029 7.428324913965295 178.2713798737131 -121.85050309009463 -1.5755821077714025e-14 -2.156920075373625e-15 180.0 -61.34092218939244 -180.0 -7.951386703658792e-16 1.1034765745125397e-32 -1.5902773407317584e-15 -1.384644508107461 -4.441851303187643e-15 1.536718596294637e-15 0.0 0.0 0.0
51.36608362197876 -17.537914502620698 486.05012340545653 109.6189550464563 -79.1162195944609 109.52065578026789 0.9727488047442409 3.4671603108148905 -33.756616383234906 -3.582618346428653 0.8146893914252161 31.013756618407623 2.89529354769874 -7.752602036067322e-15 59.29069789244755 0.0 0.0 0.0 21.848938674817557 21.472495611044984 19.676056657686196 -39.40598081073502 -10.622020129113219 -47.13902865936419 106.06482634147706 6.3611093629270335e-15 -77.10286467470074 0.0 0.0 0.0 0.08188612099051884 2.1940802584400103 -0.48906373974196377 0.0 0.0 0.0 0.0 0.0 0.0 0.0 0.0 0.0 0.0 0.0 0.0 142.84836502902968 -4.639116273215342 158.99812375007025 110.47456449201133 -8.852752873830317e-15 1.5988093098068456e-15 -1.5955461405294518e-14 41.863383455045835 6.102912653055276e-15 -1.7655625192200634e-31 6.3611093629270335e-15 3.1805546814635168e-15 -157.03541941825756 6.906132957080014 179.80327622285165 -122.60258602030171 -1.4214011489551487e-14 5.295649256589341e-16 -180.0 -55.973256490332666 -180.0 1.5902773407317584e-15 -1.6552148617688095e-32 -1.1927080055488188e-15 -1.1231261812036495 6.551785825969557e-15 8.593937906268079e-16 7.951386703658792e-16 0.0 0.0
51.44662570953369 -15.966559249162675 485.5563228607178 101.47078499057459 -76.8831164488224 101.51856172000186 7.31402545960206 -3.8445270148074715 -32.11702252901587 -10.372795894778584 2.7437334234346236 31.824490090571498 12.217146434674728 1.749305074804934e-14 48.87876353863 0.0 0.0 -3.1805546814635168e-15 19.532152219994995 19.79559586230458 19.252187743805685 -41.890882728400214 -12.536775461717777 -47.7987565784958 109.06338561668379 2.2263882770244617e-14 -84.48960118887396 6.3611093629270335e-15 1.8207363479456905e-31 3.2799470152592518e-15 0.06480345097403198 1.588727160979648 -0.6619524707229445 0.0 0.0 0.0 0.0 0.0 0.0 0.0 0.0 0.0 0.0 0.0 0.0 140.9669864112418 -8.737047097634631 159.77291128006064 111.31199131678888 -5.252146960425061e-15 -3.588685641459249e-15 -1.4699345832490992e-14 43.723632471266185 2.470713625088494e-15 0.0 0.0 0.0 -161.41652470281073 5.838514635617196 -178.90683701940685 -123.65178109219175 5.607425381277967e-15 -3.0034135447050285e-15 180.0 -45.19218136321693 -180.0 7.951386703658794e-16 5.517382872562698e-33 7.951386703658794e-16 -1.1235576333940702 4.205461851682463e-15 -3.139472157935305e-15 1.5902773407317582e-15 0.0 0.0
51.633782386779785 -14.325585114955903 484.9028514862061 94.11057007257631 -74.27354802666014 93.98398705524279 12.365856974303751 -10.08664892216573 -28.424989017914616 -15.259903150979197 4.92943097276359 32.70491484828027 13.605520956139914 -1.033680271475643e-14 34.78337660266004 7.95138670365879e-16 -3.975693351829395e-16 2.3854160110976368e-15 17.182205605032177 17.901674276461026 19.1288380850173 -43.93410849320961 -14.48499600236259 -47.57081675398451 110.66014311106875 -1.2722218725854067e-14 -90.52529997886533 0.0 0.0 -3.975693351829396e-16 0.019277966627505576 0.5551253888865535 -0.5320478487571114 0.0 0.0 0.0 0.0 0.0 0.0 0.0 0.0 0.0 0.0 0.0 0.0 140.62000363899392 -17.779949024550668 159.989869030168 114.24108048575404 1.775309490451673e-14 7.68875544786433e-15 3.1815939340816923e-15 1.6909908053319425 -4.695316729612223e-17 0.0 0.0 -3.1805546814635168e-15 -165.78377399458725 6.7761638169053215 -178.37694049096734 -125.49894704162526 1.2861514807403968e-15 -1.1395300760915556e-14 -4.272606159748496e-15 -49.75592293008987 5.906948628323503e-15 0.0 0.0 -9.93923337957349e-17 -1.8062278012146464 -3.8265703230375966e-15 3.1206292400250457e-15 0.0 0.0 0.0
51.98233659267426 -13.250128108263018 484.30643463134766 89.40067824321359 -72.52902767857886 88.84350055817838 14.52817126317319 -13.182186655922306 -25.03197796524712 -16.77270083622222 6.343456111549125 32.67608808140749 11.622076731463574 7.951386703658792e-16 24.0016901068595 1.5902773407317584e-15 -2.758691436281349e-33 -1.987846675914698e-16 16.172402596383897 16.662447924174366 19.46311931677865 -44.61845039232783 -15.170627178954808 -45.9094110608301 110.19371700254334 -3.1805546814635168e-15 -90.55478237283373 0.0 0.0 -1.5902773407317584e-15 -0.014330559743541466 -0.46458219325441374 -0.19760368853255933 1.5902773407317584e-15 0.0 0.0 1.5902773407317584e-15 0.0 0.0 1.5902773407317584e-15 0.0 0.0 1.5902773407317584e-15 0.0 0.0 139.56797206684143 -31.110236943748724 159.68247751278528 115.28187997881258 9.895439165111178e-15 8.152552671311028e-15 -1.7065762102866442e-15 -72.51306868272323 1.7065762102866442e-15 0.0 0.0 7.951386703658792e-16 -168.40079123145549 6.912881808715861 -179.3894506146231 -126.8313273149825 -2.5601054812516918e-14 5.698166551401442e-15 7.902842182961923e-16 18.1163701611616 -4.9570721179063406e-15 0.0 0.0 0.0 -2.0725161235235823 -6.537772114319619e-16 3.1692493647892086e-15 0.0 0.0 0.0
52.52710032463074 -12.45043871998787 483.6380933761597 84.7511585258394 -71.0432114467205 83.5015866464274 15.470242335004219 -15.182422718917488 -21.300802169935817 -16.38102396999051 7.363291782091474 32.015764516455995 -47.97004800162496 3.975693351829396e-15 19.453126499660076 0.0 0.0 0.0 14.80997968910001 15.121931713808996 20.533007249133284 -45.00720412897711 -15.55267762528359 -44.519782666309666 109.9516429094463 -6.3611093629270335e-15 -90.60230157913303 0.0 0.0 -1.5902773407317584e-15 -0.039205190784815554 -1.656925085311636 0.38705664889246694 -1.5902773407317584e-15 0.0 0.0 -1.5902773407317584e-15 0.0 0.0 -1.5902773407317584e-15 0.0 0.0 -1.5902773407317584e-15 0.0 0.0 135.96858019405505 -46.79025813702806 153.87506776371728 113.04590462818338 2.193003949918302e-15 -3.3161530880559756e-15 -9.03186419286826e-15 -72.21585165565108 -1.643000382209949e-14 0.0 0.0 0.0 -170.0639254299474 7.756482802729868 178.93476763137522 -127.80644468179347 -2.7981798971661944e-15 -5.712609000291633e-15 1.2534284364386565e-15 21.175452960594257 -6.705579585589412e-15 0.0 0.0 0.0 -3.2659972412169167 1.1922236089215605e-14 3.3989010434135515e-16 1.5902773407317584e-15 0.0 0.0
53.25666360855103 -11.742141169309617 482.85526371002203 79.42243127766814 -69.90138644935531 77.29640461846658 16.011627602463108 -16.79364475629662 -17.21480704132201 -13.898800392763336 7.412502081010407 31.369093735943704 -94.5491156309123 -3.1805546814635168e-15 42.03336856405868 0.0 0.0 -6.361109362927033e-15 12.724566919953036 12.731365421244918 22.344689991512347 -44.79443921941032 -15.40293093454052 -43.21821711408466 110.3843610813594 0.0 -90.66286069978752 0.0 0.0 -1.1927080055488188e-15 -0.03755108992258567 -3.145820239098116 1.1501743857098592 1.5902773407317584e-15 0.0 0.0 1.5902773407317584e-15 0.0 0.0 1.5902773407317584e-15 0.0 0.0 1.5902773407317584e-15 0.0 0.0 127.44414198590012 -60.778705135334974 142.0046059230234 106.93840017517455 -2.5081809786025766e-15 -7.300559364549305e-15 -1.6960161695161285e-14 -65.91554124924485 -2.6158547630451797e-14 0.0 0.0 1.5902773407317584e-15 -170.8128718475782 9.154253428279825 176.83850475457362 -128.6067759136276 2.292805033209047e-14 -1.1032855713867263e-14 -9.460203966605176e-16 21.293732155716803 5.0322466726741236e-15 0.0 0.0 0.0 -4.2855660032357985 1.515653108389148e-14 -1.0242923745816322e-15 -1.5902773407317584e-15 2.2069531490250793e-32 -1.5902773407317584e-15
54.14130527973175 -11.035300782322885 481.94435520172124 73.07207081013004 -68.92052538024768 69.99842783562487 16.490729654214142 -18.445082478467526 -12.881157046724947 -11.130873532899775 6.87482836772601 30.447300145400888 -106.26118510918353 6.3611093629270335e-15 65.97268127813858 0.0 0.0 0.0 10.426710717211028 9.500461737884004 24.48713756653638 -44.295002015007874 -15.018687199139494 -41.93351303191249 111.26250353450516 -9.54166404439055e-15 -90.7533947089823 0.0 0.0 1.0933156717530838e-15 0.021476303295927642 -5.045228685270145 1.9930040571044174 -1.5902773407317584e-15 0.0 0.0 -1.5902773407317584e-15 0.0 0.0 -1.5902773407317584e-15 0.0 0.0 -1.5902773407317584e-15 0.0 0.0 124.80211963137252 -67.47841343070154 134.62330395523884 105.05281761885655 -7.100998174276537e-16 -4.301469370656405e-15 1.0854055061341806e-14 -59.39781263541687 6.190769113134626e-15 0.0 0.0 3.1805546814635168e-15 -170.4310277119029 11.707735477979043 174.83904644122148 -128.83967891066897 -5.737606705161015e-15 2.746558141385202e-15 -3.2483936456948705e-15 13.513203574917524 3.8485226213437773e-16 0.0 0.0 0.0 -5.207028976664482 1.8053473678698063e-15 -4.693670321376896e-15 0.0 0.0 0.0
